<svg id="film" xmlns="http://www.w3.org/2000/svg" width="512.001" height="512" viewBox="0 0 512.001 512">
  <g id="그룹_2" data-name="그룹 2">
    <g id="그룹_1" data-name="그룹 1">
      <path id="패스_1" data-name="패스 1" d="M495.3,144.7H244.87V128a50.144,50.144,0,0,0-50.087-50.087h-16.7V16.7A16.7,16.7,0,0,0,161.391,0H83.478a16.7,16.7,0,0,0-16.7,16.7V77.913H50.087A50.144,50.144,0,0,0,0,128V461.913A50.144,50.144,0,0,0,50.087,512h144.7a50.144,50.144,0,0,0,50.087-50.087v-16.7H428.522a16.7,16.7,0,0,0,16.7-16.7V311.652h50.087a16.7,16.7,0,0,0,16.7-16.7V161.391A16.7,16.7,0,0,0,495.3,144.7ZM100.174,33.391H144.7V77.913H100.174V33.391Zm111.3,428.522a16.715,16.715,0,0,1-16.7,16.7H50.087a16.715,16.715,0,0,1-16.7-16.7v-16.7H211.478v16.7Zm0-50.087H33.391V178.087H211.478Zm0-267.13H33.391V128a16.715,16.715,0,0,1,16.7-16.7h144.7a16.715,16.715,0,0,1,16.7,16.7v16.7ZM478.609,278.261H428.522a16.7,16.7,0,0,0-16.7,16.7V411.828H244.869V178.087H478.608V278.261Z" fill="#fff"/>
    </g>
  </g>
  <g id="그룹_4" data-name="그룹 4">
    <g id="그룹_3" data-name="그룹 3">
      <rect id="사각형_1" data-name="사각형 1" width="33.391" height="33.391" transform="translate(278.261 211.478)" fill="#fff"/>
    </g>
  </g>
  <g id="그룹_6" data-name="그룹 6">
    <g id="그룹_5" data-name="그룹 5">
      <rect id="사각형_2" data-name="사각형 2" width="33.391" height="33.391" transform="translate(345.043 211.478)" fill="#fff"/>
    </g>
  </g>
  <g id="그룹_8" data-name="그룹 8">
    <g id="그룹_7" data-name="그룹 7">
      <rect id="사각형_3" data-name="사각형 3" width="33.391" height="33.391" transform="translate(278.261 345.043)" fill="#fff"/>
    </g>
  </g>
  <g id="그룹_10" data-name="그룹 10">
    <g id="그룹_9" data-name="그룹 9">
      <rect id="사각형_4" data-name="사각형 4" width="33.391" height="33.391" transform="translate(345.043 345.043)" fill="#fff"/>
    </g>
  </g>
  <g id="그룹_12" data-name="그룹 12">
    <g id="그룹_11" data-name="그룹 11">
      <rect id="사각형_5" data-name="사각형 5" width="33.391" height="33.391" transform="translate(411.826 211.478)" fill="#fff"/>
    </g>
  </g>
</svg>
