<svg xmlns="http://www.w3.org/2000/svg" width="23.008" height="20.195" viewBox="0 0 23.008 20.195">
  <path id="like" d="M16.792,3.9A4.989,4.989,0,0,1,21.5,9.122c0,3.072-2.652,4.959-5.2,7.222-2.512,2.243-3.865,3.469-4.3,3.752-.477-.309-2.143-1.823-4.3-3.752-2.556-2.272-5.2-4.177-5.2-7.222A4.989,4.989,0,0,1,7.208,3.9a4.21,4.21,0,0,1,3.675,1.941c.84,1.175.98,1.763,1.12,1.763s.278-.588,1.11-1.766A4.17,4.17,0,0,1,16.792,3.9m0-2a6.04,6.04,0,0,0-4.8,2.127A6.052,6.052,0,0,0,7.208,1.9,6.985,6.985,0,0,0,.5,9.122c0,3.61,2.55,5.827,5.015,7.97.283.246.569.494.853.747l1.027.918a45,45,0,0,0,3.518,3.018,2,2,0,0,0,2.174,0,45.262,45.262,0,0,0,3.626-3.115l.922-.824c.293-.26.59-.519.885-.774,2.334-2.025,4.98-4.32,4.98-7.94A6.985,6.985,0,0,0,16.792,1.9Z" transform="translate(-0.496 -1.901)" fill="#262626"/>
</svg>
