<svg id="구성_요소_1_1" data-name="구성 요소 1 – 1" xmlns="http://www.w3.org/2000/svg" width="84.933" height="20.85" viewBox="0 0 84.933 20.85">
  <g id="liked" transform="translate(0 -1.55)">
    <path id="패스_1" data-name="패스 1" d="M36.8,6.892H31.2V8.25h3.878a9.069,9.069,0,0,1-.266,1.54l-4.228.308c.084.476.154.938.224,1.414l3.458-.378a8.457,8.457,0,0,1-4.018,3.724L31.26,16.02A9.537,9.537,0,0,0,36.8,6.892Zm3.36-1.26H38.54V18.106h1.624V11.778h1.75V10.42h-1.75Zm10.923,5.544V9.93H44.269V9.2h6.3V7.956h-6.3V7.242h6.72V5.954H42.617v5.222h3.3v.91H41.133V13.4H52.4V12.086H47.559v-.91ZM42.463,14.2v1.3h6.86V18.12h1.624V14.2Zm12.865.042v1.316H62.37V18.12h1.624V14.242H60.55V13.4h4.844V12.1H54.124v1.3h4.788v.84Zm9.576-3.92c-1.834,0-3.612-.672-4.13-1.526h3.514V7.522H55.23V8.8h3.556c-.5.854-2.212,1.512-4.228,1.5l.672,1.33c2-.07,3.822-.854,4.522-1.876a6.7,6.7,0,0,0,4.522,1.918ZM57.68,7h4.144V5.716H57.68Zm9.327,2.408A1.807,1.807,0,1,1,68.8,11.05,1.625,1.625,0,0,1,67.008,9.412Zm8.358-3.78H73.742V18.106h1.624ZM65.328,9.426c0,1.736,1.372,3,3.472,3s3.458-1.26,3.458-3-1.344-3-3.458-3S65.328,7.676,65.328,9.426Zm7.9,5.488-.14-1.316c-1.106.14-2.618.252-4.172.308-1.414.056-2.618.07-4.06.07l.238,1.4c1.05.014,2.534-.042,3.92-.1C70.34,15.208,72.034,15.068,73.224,14.914Zm12.155,3.038V13.346H76.993v4.606Zm0-11.83H76.993v1.3h6.748a16.086,16.086,0,0,1-.336,3.164H75.551v1.3h11.27v-1.3H84.959A21.615,21.615,0,0,0,85.379,6.122ZM83.755,16.678H78.617V14.592h5.138Z" transform="translate(-1.887)" fill="#262626"/>
    <path id="패스_2" data-name="패스 2" d="M17.3,1.55A6.1,6.1,0,0,0,12,4.35,6.164,6.164,0,0,0,6.7,1.6C3,1.55,0,4.8,0,8.8c0,3.65,2.7,6,5.3,8.25.3.25.65.55.95.85l1.15,1a48.937,48.937,0,0,0,3.8,3.25,1.66,1.66,0,0,0,.8.25,1.66,1.66,0,0,0,.8-.25,38.5,38.5,0,0,0,3.9-3.4l1-.9c.35-.3.65-.6,1-.85,2.65-2.2,5.3-4.5,5.3-8.2a6.994,6.994,0,0,0-6.7-7.25Z" fill="#ed4956"/>
  </g>
</svg>
